HIERARCHY
ROOT Hips
{
	OFFSET 0.00000 0.00000 0.00000
	CHANNELS 6 Xposition Yposition Zposition Zrotation Yrotation Xrotation 
	JOINT LHipJoint
	{
		OFFSET 0 0 0
		CHANNELS 3 Zrotation Yrotation Xrotation
		JOINT LeftHip
		{
			OFFSET 1.38691 -1.89057 0.78360
			CHANNELS 3 Zrotation Yrotation Xrotation
			JOINT LeftKnee
			{
				OFFSET 2.59731 -7.13606 0.00000
				CHANNELS 3 Zrotation Yrotation Xrotation
				JOINT LeftAnkle
				{
					OFFSET 2.70078 -7.42033 0.00000
					CHANNELS 3 Zrotation Yrotation Xrotation
					JOINT LeftToe
					{
						OFFSET 0.16751 -0.46024 2.68862
						CHANNELS 3 Zrotation Yrotation Xrotation
						End Site
						{
							OFFSET 0.00000 -0.00000 1.37057
						}
					}
				}
			}
		}
	}
	JOINT RHipJoint
	{
		OFFSET 0 0 0
		CHANNELS 3 Zrotation Yrotation Xrotation
		JOINT RightHip
		{
			OFFSET -1.38190 -1.89056 0.78359
			CHANNELS 3 Zrotation Yrotation Xrotation
			JOINT RightKnee
			{
				OFFSET -2.57785 -7.08258 0.00000
				CHANNELS 3 Zrotation Yrotation Xrotation
				JOINT RightAnkle
				{
					OFFSET -2.77908 -7.63547 0.00000
					CHANNELS 3 Zrotation Yrotation Xrotation
					JOINT RightToe
					{
						OFFSET -0.17921 -0.49237 2.62360
						CHANNELS 3 Zrotation Yrotation Xrotation
						End Site
						{
							OFFSET -0.00000 -0.00000 1.34085
						}
					}
				}
			}
		}
	}
	JOINT lowerback
	{
		OFFSET 0 0 0
		CHANNELS 3 Zrotation Yrotation Xrotation
		JOINT Chest
		{
			OFFSET -0.10749 2.04110 -0.22549
			CHANNELS 3 Zrotation Yrotation Xrotation
			JOINT Chest2
			{
				OFFSET 0.01213 2.05840 0.00691
				CHANNELS 3 Zrotation Yrotation Xrotation
				JOINT lowerneck
				{
					OFFSET 0 0 0
					CHANNELS 3 Zrotation Yrotation Xrotation
					JOINT Neck
					{
						OFFSET 0.06585 1.81215 0.35449
						CHANNELS 3 Zrotation Yrotation Xrotation
						JOINT Head
						{
							OFFSET -0.04315 1.87555 -0.27307
							CHANNELS 3 Zrotation Yrotation Xrotation
							End Site
							{
								OFFSET -0.01775 1.89740 -0.13294
							}
						}
					}
				}
				JOINT LeftCollar
				{
					OFFSET 0 0 0
					CHANNELS 3 Zrotation Yrotation Xrotation
					JOINT LeftShoulder
					{
						OFFSET 2.98012 1.63606 0.28888
CHANNELS 3 Zrotation Xrotation Yrotation
						JOINT LeftElbow
						{
OFFSET 0 -5.598640 -0.000000
CHANNELS 3 Zrotation Xrotation Yrotation
							JOINT LeftWrist
							{
OFFSET 0 -3.595420 -0.000000
CHANNELS 3 Zrotation Xrotation Yrotation
								JOINT lhand
								{
									OFFSET 0 0 0
CHANNELS 3 Zrotation Xrotation Yrotation
									JOINT LFingers
									{
OFFSET 0 -0.572010 -0.000000
CHANNELS 3 Zrotation Xrotation Yrotation
										End Site
										{
OFFSET 0 -0.461170 -0.000000
										}
									}
								}
								JOINT LThumb
								{
OFFSET 0 0.000000 0.000000
CHANNELS 3 Zrotation Xrotation Yrotation
									End Site
									{
OFFSET 0 -0.468210 0.468210
									}
								}
							}
						}
					}
				}
				JOINT RightCollar
				{
					OFFSET 0 0 0
					CHANNELS 3 Zrotation Yrotation Xrotation
					JOINT RightShoulder
					{
						OFFSET -3.08694 1.53706 0.36335
CHANNELS 3 Zrotation Xrotation Yrotation
						JOINT RightElbow
						{
OFFSET 0 -5.809400 -0.000000
CHANNELS 3 Zrotation Xrotation Yrotation
							JOINT RightWrist
							{
OFFSET 0 -3.669530 -0.000000
CHANNELS 3 Zrotation Xrotation Yrotation
								JOINT rhand
								{
									OFFSET 0 0 0
CHANNELS 3 Zrotation Xrotation Yrotation
									JOINT RFingers
									{
OFFSET 0 -0.578430 -0.000000
CHANNELS 3 Zrotation Xrotation Yrotation
										End Site
										{
OFFSET 0 -0.466350 -0.000000
										}
									}
								}
								JOINT RThumb
								{
OFFSET 0 0.000000 0.000000
CHANNELS 3 Zrotation Xrotation Yrotation
									End Site
									{
OFFSET 0 -0.473470 0.473470
									}
								}
							}
						}
					}
				}
			}
		}
	}
}
MOTION
Frames: 7
Frame Time: 0.008333333333333333
16.966360 18.675591 14.482034 -8.278963 59.658953 -1.816886 0.000000 0.000000 0.000000 -6.466696 -2.219971 -26.996831 9.320819 17.009194 57.192439 5.874146 -4.592898 -45.283733 2.039798 -8.948259 -25.633926 0.000000 0.000000 0.000000 24.810914 -0.495524 -39.578323 -8.123652 -16.209480 53.006901 -3.632569 10.460665 -34.536356 -0.758154 5.560335 -15.513993 -5.204928 -3.571430 14.596384 1.027221 -5.538694 -0.459357 5.191305 -2.433796 -8.079314 -4.181904 -9.840500 -17.550269 6.920962 -15.766927 36.294776 0.671712 -5.932453 17.178452 0.000000 0.000000 0.000000 4.832080 -20.173786 -56.614834 51.674597 -53.648440 27.517314 27.517205 -21.734580 -2.381603 0.000000 0.000000 0.000000 -7.125000 0.000000 0.000000 0.751407 32.664052 0.227112 0.000000 0.000000 0.000000 -26.267385 2.578445 36.991094 -35.051712 -44.848104 -14.850064 -41.624071 -7.931673 -5.493237 0.000000 0.000000 0.000000 7.125000 0.000000 0.000000 -10.917908 22.683830 -5.968894
16.934175 18.672952 14.622793 -8.640067 60.117094 -2.215054 0.000000 0.000000 0.000000 -6.414911 -2.724277 -26.714601 9.236166 16.957300 56.903519 5.998181 -4.473792 -45.814912 2.019033 -8.905639 -25.500756 0.000000 0.000000 0.000000 24.915642 -0.603201 -39.535186 -8.129417 -16.213684 53.027617 -3.693707 10.380259 -34.844490 -0.744235 5.510593 -15.370756 -5.172976 -3.650692 14.631899 1.053625 -5.637478 -0.446388 5.222930 -2.482784 -8.073659 -4.183307 -9.880622 -17.490577 6.959883 -15.845318 36.327587 0.675487 -5.958375 17.194058 0.000000 0.000000 0.000000 4.806045 -20.079316 -56.625001 51.492725 -53.580018 27.370774 27.568933 -21.768841 -2.332204 0.000000 0.000000 0.000000 -7.125000 0.000000 0.000000 0.793734 32.609565 0.240842 0.000000 0.000000 0.000000 -26.152306 2.853376 37.039414 -35.236168 -44.980009 -14.980025 -41.555058 -7.953865 -5.484370 0.000000 0.000000 0.000000 7.125000 0.000000 0.000000 -10.870118 22.702796 -5.936960
16.901525 18.668086 14.762788 -9.038711 60.568757 -2.652589 0.000000 0.000000 0.000000 -6.315552 -3.274762 -26.433302 9.172477 16.917100 56.684332 6.096734 -4.553421 -46.198020 1.992154 -8.849299 -25.325493 0.000000 0.000000 0.000000 25.010269 -0.703768 -39.503677 -8.141128 -16.222106 53.069494 -3.754712 10.345998 -35.145017 -0.727658 5.449554 -15.195527 -5.130326 -3.730253 14.682099 1.076208 -5.735797 -0.435147 5.246050 -2.531440 -8.079632 -4.194045 -9.923037 -17.427928 7.008405 -15.927496 36.356445 0.684279 -5.986059 17.209896 0.000000 0.000000 0.000000 4.790475 -19.990426 -56.625102 51.314308 -53.511497 27.227423 27.622488 -21.823168 -2.292407 0.000000 0.000000 0.000000 -7.125000 0.000000 0.000000 0.837357 32.565842 0.255069 0.000000 0.000000 0.000000 -26.022243 3.132394 37.070956 -35.423880 -45.111514 -15.113175 -41.500631 -7.980542 -5.481350 0.000000 0.000000 0.000000 7.125000 0.000000 0.000000 -10.831696 22.712460 -5.912799
16.868875 18.663220 14.902784 -9.437355 61.020420 -3.090125 0.000000 0.000000 0.000000 -6.216193 -3.825247 -26.152002 9.108788 16.876900 56.465144 6.195288 -4.633049 -46.581128 1.965276 -8.792959 -25.150231 0.000000 0.000000 0.000000 25.104897 -0.804335 -39.472168 -8.152839 -16.230529 53.111372 -3.815716 10.311738 -35.445544 -0.711082 5.388516 -15.020298 -5.087676 -3.809814 14.732299 1.098791 -5.834116 -0.423906 5.269170 -2.580096 -8.085605 -4.204783 -9.965451 -17.365279 7.056927 -16.009675 36.385303 0.693071 -6.013743 17.225734 0.000000 0.000000 0.000000 4.774905 -19.901536 -56.625202 51.135891 -53.442976 27.084072 27.676043 -21.877495 -2.252609 0.000000 0.000000 0.000000 -7.125000 0.000000 0.000000 0.880979 32.522118 0.269297 0.000000 0.000000 0.000000 -25.892180 3.411411 37.102499 -35.611591 -45.243020 -15.246325 -41.446203 -8.007219 -5.478330 0.000000 0.000000 0.000000 7.125000 0.000000 0.000000 -10.793275 22.722124 -5.888639
16.836202 18.658296 15.042763 -9.837007 61.471676 -3.528635 0.000000 0.000000 0.000000 -6.115842 -4.375788 -25.871819 9.045699 16.837061 56.247998 6.292993 -4.716983 -46.960025 1.938223 -8.736195 -24.973691 0.000000 0.000000 0.000000 25.199283 -0.904607 -39.441139 -8.164710 -16.239066 53.153822 -3.876704 10.278520 -35.745782 -0.694463 5.327240 -14.844400 -5.044862 -3.889270 14.782843 1.121237 -5.932288 -0.412730 5.292073 -2.628672 -8.091898 -4.215865 -10.007992 -17.302560 7.105824 -16.092067 36.413978 0.702038 -6.041520 17.241582 0.000000 0.000000 0.000000 4.759747 -19.812850 -56.625144 50.957714 -53.374506 26.940923 27.729106 -21.932261 -2.213044 0.000000 0.000000 0.000000 -7.125000 0.000000 0.000000 0.924197 32.478643 0.283402 0.000000 0.000000 0.000000 -25.761610 3.690656 37.133354 -35.799426 -45.374529 -15.379589 -41.392382 -8.033987 -5.475512 0.000000 0.000000 0.000000 7.125000 0.000000 0.000000 -10.755254 22.731461 -5.864789
16.802781 18.651450 15.182221 -10.269375 61.909715 -3.998821 0.000000 0.000000 0.000000 -5.983263 -4.928153 -25.627901 9.002110 16.808941 56.097198 6.363125 -4.940868 -47.202064 1.905506 -8.665694 -24.755645 0.000000 0.000000 0.000000 25.285824 -0.995275 -39.425704 -8.181790 -16.251314 53.214860 -3.937138 10.279191 -36.036645 -0.676477 5.258215 -14.646756 -4.996675 -3.965308 14.844586 1.139223 -6.025674 -0.403669 5.307911 -2.674644 -8.108575 -4.238146 -10.054635 -17.237562 7.166929 -16.181427 36.436695 0.716702 -6.072324 17.257722 0.000000 0.000000 0.000000 4.757968 -19.730772 -56.619909 50.787317 -53.307696 26.804351 27.766152 -22.001320 -2.181032 0.000000 0.000000 0.000000 -7.125000 0.000000 0.000000 0.954264 32.443242 0.293502 0.000000 0.000000 0.000000 -25.614534 3.977291 37.141878 -35.991231 -45.506135 -15.516564 -41.358289 -8.063718 -5.479270 0.000000 0.000000 0.000000 7.125000 0.000000 0.000000 -10.730255 22.730152 -5.851031
16.769359 18.644605 15.321680 -10.701743 62.347754 -4.469007 0.000000 0.000000 0.000000 -5.850683 -5.480517 -25.383983 8.958521 16.780821 55.946398 6.433257 -5.164753 -47.444103 1.872789 -8.595193 -24.537598 0.000000 0.000000 0.000000 25.372365 -1.085943 -39.410268 -8.198870 -16.263561 53.275898 -3.997572 10.279862 -36.327508 -0.658491 5.189190 -14.449111 -4.948489 -4.041345 14.906329 1.157209 -6.119060 -0.394609 5.323750 -2.720616 -8.125252 -4.260427 -10.101278 -17.172564 7.228035 -16.270786 36.459413 0.731366 -6.103128 17.273863 0.000000 0.000000 0.000000 4.756190 -19.648694 -56.614674 50.616920 -53.240886 26.667778 27.803197 -22.070378 -2.149020 0.000000 0.000000 0.000000 -7.125000 0.000000 0.000000 0.984330 32.407840 0.303602 0.000000 0.000000 0.000000 -25.467458 4.263926 37.150401 -36.183037 -45.637741 -15.653539 -41.324197 -8.093449 -5.483029 0.000000 0.000000 0.000000 7.125000 0.000000 0.000000 -10.705255 22.728844 -5.837273
